<?xml version="1.0" encoding="utf-8"?>
<svg version="1.1" id="Layer_1"
	xmlns="http://www.w3.org/2000/svg"
	xmlns:xlink="http://www.w3.org/1999/xlink" x="0px" y="0px" width="176px" height="24px" viewBox="0 0 176 24" enable-background="new 0 0 176 24" xml:space="preserve">
	<g>
		<g>
			<path fill="#FFFFFF" d="M22.965,12L22.965,12c0-1.31-0.232-2.641-0.728-3.936l0,0c0-0.002,0-0.003,0-0.005
			c-2.179-5.671-8.54-8.503-14.209-6.327C2.355,3.909-0.476,10.271,1.7,15.943c2.17,5.648,8.495,8.48,14.151,6.345l0.002,0.003
			l1.579-0.605c0.417-0.162,0.537-0.377,0.389-0.766l-0.696-1.814c-0.148-0.388-0.384-0.469-0.801-0.31l-1.579,0.606L14.743,19.4
			c-4.061,1.521-8.598-0.51-10.153-4.566C3.023,10.758,5.058,6.185,9.136,4.62c4.071-1.562,8.634,0.468,10.205,4.532v0.001
			c0.002,0.005,0.006,0.01,0.006,0.016c0.361,0.938,0.522,1.902,0.52,2.851l0,0v10.046c0,0.447,0.161,0.64,0.576,0.64h1.949
			c0.447,0,0.576-0.192,0.576-0.64V12H22.965z"/>
			<path fill="#FFFFFF" d="M11.965,6.038c-3.292,0-5.958,2.669-5.958,5.96s2.666,5.959,5.958,5.959s5.958-2.668,5.958-5.959
			S15.258,6.038,11.965,6.038z M13.017,6.856c1.185,0.244,2.226,0.89,2.977,1.786l-1.98,1c-0.235,0.13-0.578,0.106-0.788-0.025
			c-0.133-0.081-0.209-0.211-0.209-0.395V6.856z M10.914,6.856v2.339c0,0.237-0.131,0.368-0.264,0.447
			c-0.234,0.106-0.523,0.106-0.732-0.025L7.944,8.632C8.696,7.74,9.733,7.098,10.914,6.856z M6.943,13.561
			c-0.153-0.492-0.236-1.013-0.236-1.552c0-0.628,0.113-1.233,0.317-1.792l2.129,1.476c0.132,0.131,0.184,0.368,0.157,0.604
			c-0.053,0.236-0.13,0.421-0.289,0.5L6.943,13.561z M10.914,17.158c-1.222-0.249-2.29-0.928-3.047-1.867l2.179-0.918
			c0.185-0.105,0.396-0.078,0.578,0.027c0.185,0.104,0.29,0.289,0.29,0.498V17.158z M11.965,13.312
			c-0.737,0-1.316-0.578-1.316-1.314c0-0.735,0.579-1.313,1.316-1.313c0.737,0,1.313,0.578,1.313,1.313
			C13.279,12.734,12.702,13.312,11.965,13.312z M13.017,17.158v-2.26c0-0.209,0.106-0.395,0.262-0.498
			c0.184-0.105,0.394-0.133,0.607-0.027l2.144,0.958C15.278,16.25,14.22,16.913,13.017,17.158z M14.881,12.822
			c-0.158-0.104-0.263-0.289-0.289-0.499c-0.025-0.237,0.026-0.472,0.159-0.604l2.157-1.497c0.201,0.559,0.315,1.16,0.315,1.786
			c0,0.551-0.087,1.082-0.247,1.583L14.881,12.822z"/>
		</g>
		<g>
			<g>
				<path fill="#FFFFFF" d="M31.925,18.014v3.729c0,0.286-0.096,0.416-0.384,0.416h-1.393c-0.288,0-0.384-0.13-0.384-0.416V11.69
				c0-0.288,0.096-0.416,0.384-0.416h3.362c2.897,0,3.874,1.264,3.874,2.609v1.52c0,0.945-0.48,1.843-1.761,2.307l1.729,4.034
				c0.112,0.256-0.08,0.416-0.368,0.416h-1.409c-0.224,0-0.288-0.16-0.4-0.416l-1.569-3.729H33.51H31.925z M31.925,13.066v3.152
				h1.585c1.072,0,1.729-0.398,1.729-1.199v-0.752c0-0.801-0.656-1.201-1.729-1.201H31.925z"/>
				<path fill="#FFFFFF" d="M43.365,11.274c0.288,0,0.432,0.128,0.512,0.4l2.977,10.084c0.08,0.256-0.016,0.4-0.288,0.4h-1.44
				c-0.272,0-0.384-0.145-0.464-0.4l-0.56-1.953h-2.977l-0.561,1.953c-0.08,0.256-0.192,0.4-0.48,0.4h-1.296
				c-0.289,0-0.384-0.145-0.304-0.4l2.993-10.084c0.08-0.272,0.208-0.4,0.496-0.4H43.365z M43.093,16.316
				c-0.208-0.656-0.448-2.705-0.464-2.914c-0.032,0.209-0.304,2.226-0.496,2.896l-0.544,1.793h2.033L43.093,16.316z"/>
				<path fill="#FFFFFF" d="M48.595,22.159c-0.288,0-0.384-0.13-0.384-0.416V11.69c0-0.288,0.096-0.416,0.384-0.416h2.929
				c2.897,0,3.874,1.072,3.874,2.417v0.943c0,0.784-0.368,1.408-1.2,1.793c1.088,0.385,1.697,1.057,1.697,1.938v1.265
				c0,1.345-0.977,2.529-3.874,2.529H48.595z M50.372,13.003v2.785h1.201c1.024,0,1.681-0.386,1.681-1.201v-0.56
				c0-0.801-0.656-1.024-1.729-1.024H50.372z M50.372,17.421v3.011h1.649c1.072,0,1.745-0.386,1.745-1.187v-0.72
				c0-0.688-0.672-1.104-1.745-1.104H50.372z"/>
				<path fill="#FFFFFF" d="M59.876,20.366h3.569c0.272,0,0.4,0.096,0.4,0.384v1.009c0,0.288-0.128,0.4-0.4,0.4h-5.394
				c-0.24,0-0.336-0.146-0.336-0.416V11.69c0-0.288,0.096-0.416,0.384-0.416h1.393c0.288,0,0.384,0.128,0.384,0.416V20.366z"/>
				<path fill="#FFFFFF" d="M66.516,19.294c0,0.8,0.433,1.2,1.377,1.2s1.28-0.4,1.28-1.2V11.69c0-0.288,0.112-0.416,0.384-0.416
				h1.393c0.288,0,0.384,0.128,0.384,0.416v7.987c0,1.345-0.736,2.608-3.441,2.608c-2.689,0-3.506-1.264-3.506-2.608v-0.96
				c0-0.289,0.112-0.4,0.4-0.4h1.345c0.288,0,0.384,0.111,0.384,0.4V19.294L66.516,19.294z"/>
				<path fill="#FFFFFF" d="M73.875,22.159c-0.288,0-0.384-0.13-0.384-0.416V11.69c0-0.288,0.096-0.416,0.384-0.416h5.475
				c0.272,0,0.4,0.096,0.4,0.385v1.008c0,0.288-0.128,0.399-0.4,0.399h-3.698v2.594h3.425c0.288,0,0.417,0.097,0.417,0.384v0.961
				c0,0.271-0.128,0.384-0.417,0.384h-3.425v2.979h3.857c0.288,0,0.4,0.096,0.4,0.384v1.009c0,0.288-0.112,0.4-0.4,0.4
				L73.875,22.159L73.875,22.159z"/>
				<path fill="#FFFFFF" d="M89.462,21.759c0,0.271-0.096,0.4-0.384,0.4h-1.265c-0.208,0-0.288-0.05-0.368-0.192l-3.089-5.298
				c-0.432-0.721-0.624-1.249-0.64-1.297v6.387c0,0.271-0.096,0.4-0.384,0.4h-1.265c-0.288,0-0.384-0.13-0.384-0.4V11.675
				c0-0.272,0.096-0.4,0.384-0.4h1.265c0.176,0,0.272,0.048,0.336,0.16l3.217,5.521c0.272,0.465,0.544,1.121,0.544,1.121v-6.402
				c0-0.272,0.096-0.4,0.384-0.4h1.265c0.288,0,0.384,0.128,0.384,0.4V21.759z"/>
				<path fill="#FFFFFF" d="M95.686,11.274c0.287,0,0.433,0.128,0.513,0.4l2.977,10.084c0.08,0.256-0.016,0.4-0.288,0.4h-1.439
				c-0.271,0-0.385-0.145-0.465-0.4l-0.561-1.953h-2.979l-0.561,1.953c-0.08,0.256-0.191,0.4-0.479,0.4h-1.297
				c-0.289,0-0.385-0.145-0.305-0.4l2.993-10.084c0.08-0.272,0.208-0.4,0.496-0.4H95.686z M95.412,16.316
				c-0.207-0.656-0.447-2.705-0.464-2.914c-0.032,0.209-0.304,2.226-0.496,2.896l-0.544,1.793h2.031L95.412,16.316z"/>
				<path fill="#FFFFFF" d="M106.244,22.159c-0.288,0-0.416-0.13-0.496-0.4l-2.993-10.084c-0.08-0.256,0.017-0.4,0.304-0.4h1.521
				c0.271,0,0.384,0.145,0.463,0.4l1.553,5.441c0.24,0.864,0.385,2.321,0.385,2.321s0.191-1.457,0.433-2.306l1.553-5.458
				c0.08-0.256,0.192-0.4,0.479-0.4h1.394c0.272,0,0.368,0.145,0.288,0.4l-2.979,10.084c-0.08,0.271-0.224,0.4-0.512,0.4
				L106.244,22.159L106.244,22.159z"/>
				<path fill="#FFFFFF" d="M112.211,13.755c0-1.344,0.992-2.609,3.889-2.609c2.897,0,3.892,1.266,3.892,2.609v5.923
				c0,1.346-0.993,2.608-3.892,2.608c-2.896,0-3.889-1.265-3.889-2.608V13.755z M117.828,14.141c0-0.802-0.656-1.201-1.729-1.201
				c-1.074,0-1.713,0.399-1.713,1.201v5.153c0,0.8,0.641,1.2,1.713,1.2c1.071,0,1.729-0.4,1.729-1.2V14.141z"/>
				<path fill="#FFFFFF" d="M127.748,11.274c0.289,0,0.416,0.096,0.416,0.385v0.991c0,0.145-0.047,0.24-0.096,0.32l-4.098,7.396
				h4.065c0.271,0,0.399,0.096,0.399,0.384v1.009c0,0.288-0.129,0.4-0.399,0.4h-6.261c-0.286,0-0.398-0.112-0.398-0.4V20.75
				c0-0.128,0.032-0.208,0.062-0.271l4.115-7.41h-3.506c-0.273,0-0.4-0.112-0.4-0.4V11.66c0-0.289,0.127-0.385,0.4-0.385
				L127.748,11.274L127.748,11.274z"/>
				<path fill="#FFFFFF" d="M132.083,21.743c0,0.286-0.097,0.416-0.384,0.416h-1.393c-0.289,0-0.386-0.13-0.386-0.416V11.69
				c0-0.288,0.097-0.416,0.386-0.416h1.393c0.287,0,0.384,0.128,0.384,0.416V21.743z"/>
				<path fill="#FFFFFF" d="M136.467,20.366h3.569c0.272,0,0.399,0.096,0.399,0.384v1.009c0,0.288-0.127,0.4-0.399,0.4h-5.394
				c-0.24,0-0.336-0.146-0.336-0.416V11.69c0-0.288,0.096-0.416,0.383-0.416h1.393c0.289,0,0.385,0.128,0.385,0.416V20.366z"/>
				<path fill="#FFFFFF" d="M145.939,11.274c0.287,0,0.432,0.128,0.512,0.4l2.979,10.084c0.079,0.256-0.017,0.4-0.289,0.4h-1.439
				c-0.271,0-0.385-0.145-0.465-0.4l-0.561-1.953h-2.977l-0.561,1.953c-0.08,0.256-0.193,0.4-0.48,0.4h-1.297
				c-0.289,0-0.385-0.145-0.305-0.4l2.993-10.084c0.08-0.272,0.208-0.4,0.496-0.4H145.939z M145.668,16.316
				c-0.209-0.656-0.449-2.705-0.465-2.914c-0.032,0.209-0.305,2.226-0.496,2.896l-0.545,1.793h2.033L145.668,16.316z"/>
			</g>
		</g>
		<g opacity="0.5">
			<g>
				<path fill="#FFFFFF" d="M157.104,13.311l2.66,8.647c0.041,0.134-0.012,0.2-0.158,0.2h-0.571c-0.134,0-0.199-0.066-0.24-0.2
				l-0.731-2.367h-3.047l-0.718,2.367c-0.041,0.134-0.094,0.2-0.228,0.2h-0.532c-0.134,0-0.187-0.066-0.146-0.2l2.647-8.647
				c0.039-0.134,0.104-0.199,0.252-0.199h0.571C156.996,13.109,157.064,13.177,157.104,13.311z M156.891,15.718
				c-0.133-0.426-0.307-1.463-0.332-1.608c-0.014,0.093-0.174,1.078-0.334,1.582l-0.983,3.142h2.62L156.891,15.718z"/>
				<path fill="#FFFFFF" d="M162.477,18.672v3.286c0,0.134-0.041,0.2-0.188,0.2h-0.559c-0.133,0-0.187-0.066-0.187-0.2v-8.647
				c0-0.134,0.054-0.199,0.172-0.199h2.636c2.209,0,2.887,0.878,2.887,1.941v1.663c0,1.063-0.678,1.956-2.887,1.956H162.477z
				 M162.477,13.922v3.938h1.875c1.424,0,1.943-0.519,1.943-1.291v-1.369c0-0.771-0.52-1.277-1.943-1.277H162.477z"/>
				<path fill="#FFFFFF" d="M170.27,18.672v3.286c0,0.134-0.039,0.2-0.186,0.2h-0.559c-0.135,0-0.188-0.066-0.188-0.2v-8.647
				c0-0.134,0.054-0.199,0.174-0.199h2.636c2.209,0,2.887,0.878,2.887,1.941v1.663c0,1.063-0.678,1.956-2.887,1.956H170.27z
				 M170.27,13.922v3.938h1.877c1.424,0,1.941-0.519,1.941-1.291v-1.369c0-0.771-0.518-1.277-1.941-1.277H170.27z"/>
			</g>
		</g>
	</g>
</svg>
